<?xml version="1.0" encoding="UTF-8" standalone="no"?>
<svg
   xmlns:dc="http://purl.org/dc/elements/1.1/"
   xmlns:cc="http://creativecommons.org/ns#"
   xmlns:rdf="http://www.w3.org/1999/02/22-rdf-syntax-ns#"
   xmlns:svg="http://www.w3.org/2000/svg"
   xmlns="http://www.w3.org/2000/svg"
   xmlns:sodipodi="http://sodipodi.sourceforge.net/DTD/sodipodi-0.dtd"
   xmlns:inkscape="http://www.inkscape.org/namespaces/inkscape"
   sodipodi:docname="githublogo.svg"
   inkscape:version="1.0 (4035a4fb49, 2020-05-01)"
   inkscape:export-ydpi="96"
   inkscape:export-xdpi="96"
   inkscape:export-filename="C:\Users\Andrew\Documents\Projects\boomerang\logo\githubbanner.png"
   id="svg8"
   version="1.1"
   viewBox="0 0 1000 300"
   height="300mm"
   width="1000mm">
  <defs
     id="defs2">
    <filter
       id="filter1693"
       inkscape:label="Diffuse Light"
       style="color-interpolation-filters:sRGB;">
      <feGaussianBlur
         id="feGaussianBlur1683"
         result="blur"
         stdDeviation="6.1976"
         in="SourceGraphic" />
      <feDiffuseLighting
         id="feDiffuseLighting1687"
         result="diffuse"
         lighting-color="rgb(129,129,128)"
         surfaceScale="10"
         diffuseConstant="1">
        <feDistantLight
           id="feDistantLight1685"
           azimuth="254"
           elevation="79" />
      </feDiffuseLighting>
      <feComposite
         id="feComposite1689"
         result="composite1"
         k1="1"
         operator="arithmetic"
         in2="diffuse"
         in="diffuse" />
      <feComposite
         id="feComposite1691"
         result="composite2"
         k3="1"
         operator="arithmetic"
         k1="1"
         in2="SourceGraphic"
         in="composite1" />
    </filter>
    <filter
       id="filter1693-0"
       inkscape:label="Diffuse Light"
       style="color-interpolation-filters:sRGB">
      <feGaussianBlur
         id="feGaussianBlur1683-7"
         result="blur"
         stdDeviation="6.1976"
         in="SourceGraphic" />
      <feDiffuseLighting
         id="feDiffuseLighting1687-6"
         result="diffuse"
         lighting-color="#818180"
         surfaceScale="10"
         diffuseConstant="1">
        <feDistantLight
           id="feDistantLight1685-8"
           azimuth="254"
           elevation="79" />
      </feDiffuseLighting>
      <feComposite
         id="feComposite1689-3"
         result="composite1"
         k1="1"
         operator="arithmetic"
         in2="diffuse"
         in="diffuse"
         k2="0"
         k3="0"
         k4="0" />
      <feComposite
         id="feComposite1691-8"
         result="composite2"
         k3="1"
         operator="arithmetic"
         k1="1"
         in2="SourceGraphic"
         in="composite1"
         k2="0"
         k4="0" />
    </filter>
    <filter
       id="filter1693-5"
       inkscape:label="Diffuse Light"
       style="color-interpolation-filters:sRGB">
      <feGaussianBlur
         id="feGaussianBlur1683-1"
         result="blur"
         stdDeviation="6.1976"
         in="SourceGraphic" />
      <feDiffuseLighting
         id="feDiffuseLighting1687-9"
         result="diffuse"
         lighting-color="#818180"
         surfaceScale="10"
         diffuseConstant="1">
        <feDistantLight
           id="feDistantLight1685-3"
           azimuth="254"
           elevation="79" />
      </feDiffuseLighting>
      <feComposite
         id="feComposite1689-35"
         result="composite1"
         k1="1"
         operator="arithmetic"
         in2="diffuse"
         in="diffuse"
         k2="0"
         k3="0"
         k4="0" />
      <feComposite
         id="feComposite1691-4"
         result="composite2"
         k3="1"
         operator="arithmetic"
         k1="1"
         in2="SourceGraphic"
         in="composite1"
         k2="0"
         k4="0" />
    </filter>
  </defs>
  <sodipodi:namedview
     inkscape:window-maximized="1"
     inkscape:window-y="-8"
     inkscape:window-x="-8"
     inkscape:window-height="1017"
     inkscape:window-width="1920"
     inkscape:guide-bbox="true"
     showguides="true"
     inkscape:showpageshadow="false"
     width="1000mm"
     inkscape:pagecheckerboard="true"
     showgrid="false"
     inkscape:document-rotation="0"
     inkscape:current-layer="g101"
     inkscape:document-units="mm"
     inkscape:cy="-607.91912"
     inkscape:cx="2238.3953"
     inkscape:zoom="0.17854446"
     inkscape:pageshadow="2"
     inkscape:pageopacity="0.0"
     borderopacity="1.0"
     bordercolor="#666666"
     pagecolor="#ffffff"
     id="base">
    <inkscape:grid
       id="grid912"
       type="xygrid" />
  </sodipodi:namedview>
  <metadata
     id="metadata5">
    <rdf:RDF>
      <cc:Work
         rdf:about="">
        <dc:format>image/svg+xml</dc:format>
        <dc:type
           rdf:resource="http://purl.org/dc/dcmitype/StillImage" />
        <dc:title />
      </cc:Work>
    </rdf:RDF>
  </metadata>
  <g
     id="layer1"
     inkscape:groupmode="layer"
     inkscape:label="Layer 1">
    <rect
       y="-9.6322947"
       x="-44.363255"
       height="319.34738"
       width="1052.0487"
       id="rect1749"
       style="fill:#cccccc;fill-opacity:1;stroke:none;stroke-width:1.49143;stroke-miterlimit:4;stroke-dasharray:none;stroke-opacity:1" />
    <g
       style="fill:#666666"
       transform="matrix(1.1482622,0,0,1.1482622,-27.751744,-30.21883)"
       id="g79">
      <path
         id="path14"
         style="font-style:normal;font-variant:normal;font-weight:normal;font-stretch:normal;font-size:85.9724px;line-height:1.25;font-family:'Raleway Light';-inkscape-font-specification:'Raleway Light, Normal';font-variant-ligatures:normal;font-variant-caps:normal;font-variant-numeric:normal;font-variant-east-asian:normal;fill:#666666;stroke-width:0.447773"
         d="m 52.960708,180.37393 v -61.0404 h 25.10394 q 3.868757,0 7.135709,1.63348 3.266951,1.63347 5.588205,4.38459 2.407227,2.66514 3.696813,6.10404 1.375559,3.35292 1.375559,6.79182 0,3.69681 -1.289586,7.13571 -1.203614,3.43889 -3.524868,6.10404 -2.235283,2.66514 -5.416261,4.29862 -3.180979,1.5475 -7.049737,1.5475 H 57.3453 v 23.0406 z m 4.384592,-27.0813 h 21.063237 q 3.009034,0 5.416261,-1.20362 2.407227,-1.28958 4.040703,-3.35292 1.719448,-2.14931 2.579172,-4.81445 0.945696,-2.75112 0.945696,-5.67418 0,-3.00904 -1.117641,-5.67418 -1.031669,-2.75112 -2.923062,-4.81445 -1.80542,-2.06334 -4.298619,-3.26696 -2.407227,-1.20361 -5.158344,-1.20361 H 57.3453 Z" />
      <path
         id="path16"
         style="font-style:normal;font-variant:normal;font-weight:normal;font-stretch:normal;font-size:85.9724px;line-height:1.25;font-family:'Raleway Light';-inkscape-font-specification:'Raleway Light, Normal';font-variant-ligatures:normal;font-variant-caps:normal;font-variant-numeric:normal;font-variant-east-asian:normal;fill:#666666;stroke-width:0.447773"
         d="m 126.21725,139.53704 q -6.01807,0.17195 -10.5746,3.61084 -4.47057,3.35293 -6.27599,9.28502 v 27.94103 h -4.29862 v -44.70564 h 4.12668 v 11.00446 q 2.32125,-4.72848 6.10404,-7.65154 3.86875,-3.00903 8.25335,-3.4389 0.85972,-0.086 1.5475,-0.086 0.68778,0 1.11764,0 z" />
      <path
         id="path18"
         style="font-style:normal;font-variant:normal;font-weight:normal;font-stretch:normal;font-size:85.9724px;line-height:1.25;font-family:'Raleway Light';-inkscape-font-specification:'Raleway Light, Normal';font-variant-ligatures:normal;font-variant-caps:normal;font-variant-numeric:normal;font-variant-east-asian:normal;fill:#666666;stroke-width:0.447773"
         d="m 151.01223,181.23366 q -4.72849,0 -8.76919,-1.80542 -3.95473,-1.8914 -6.87779,-5.07238 -2.92306,-3.18097 -4.55654,-7.39362 -1.63347,-4.21265 -1.63347,-8.85516 0,-4.72848 1.63347,-8.94113 1.71945,-4.21265 4.64251,-7.39362 2.92306,-3.18098 6.87779,-4.9864 4.04071,-1.8914 8.68322,-1.8914 4.6425,0 8.59724,1.8914 3.95473,1.80542 6.87779,4.9864 3.00903,3.18097 4.64251,7.39362 1.71944,4.21265 1.71944,8.94113 0,4.64251 -1.71944,8.85516 -1.63348,4.21265 -4.55654,7.39362 -2.92306,3.18098 -6.96376,5.07238 -3.95474,1.80542 -8.59724,1.80542 z m -17.53837,-22.95463 q 0,3.95473 1.37555,7.47959 1.37556,3.4389 3.69682,6.01807 2.40722,2.57917 5.5882,4.12668 3.18098,1.46153 6.79182,1.46153 3.61084,0 6.79182,-1.46153 3.18098,-1.54751 5.58821,-4.21265 2.40723,-2.66514 3.78278,-6.10404 1.37556,-3.52487 1.37556,-7.56557 0,-3.95473 -1.37556,-7.39363 -1.37555,-3.52487 -3.78278,-6.10404 -2.40723,-2.66514 -5.58821,-4.21265 -3.095,-1.5475 -6.70584,-1.5475 -3.61085,0 -6.79182,1.5475 -3.18098,1.54751 -5.58821,4.21265 -2.32125,2.66515 -3.78279,6.27599 -1.37555,3.52487 -1.37555,7.4796 z" />
      <path
         id="path20"
         style="font-style:normal;font-variant:normal;font-weight:normal;font-stretch:normal;font-size:85.9724px;line-height:1.25;font-family:'Raleway Light';-inkscape-font-specification:'Raleway Light, Normal';font-variant-ligatures:normal;font-variant-caps:normal;font-variant-numeric:normal;font-variant-east-asian:normal;fill:#666666;stroke-width:0.447773"
         d="m 175.58288,195.59105 q -2.75112,0 -5.07238,-0.77376 -2.40722,-0.68777 -4.29861,-2.40722 l 2.32125,-2.83709 q 1.46153,1.20361 3.18098,1.63347 1.71945,0.42987 3.43889,0.42987 1.63348,0 3.18098,-0.68778 1.54751,-0.60181 2.75112,-1.80542 1.20361,-1.11764 1.97736,-2.75112 0.77376,-1.5475 0.77376,-3.4389 v -47.28481 h 4.29862 v 47.11287 q 0,2.83709 -1.11764,5.15834 -1.03167,2.32126 -2.83709,4.04071 -1.80542,1.71944 -4.04071,2.66514 -2.23528,0.9457 -4.55653,0.9457 z m 8.25335,-70.06751 v -7.90946 h 4.29862 v 7.90946 z" />
      <path
         id="path22"
         style="font-style:normal;font-variant:normal;font-weight:normal;font-stretch:normal;font-size:85.9724px;line-height:1.25;font-family:'Raleway Light';-inkscape-font-specification:'Raleway Light, Normal';font-variant-ligatures:normal;font-variant-caps:normal;font-variant-numeric:normal;font-variant-east-asian:normal;fill:#666666;stroke-width:0.447773"
         d="m 220.61897,181.23366 q -4.72848,0 -8.76918,-1.80542 -4.0407,-1.8914 -7.04974,-5.07238 -2.92306,-3.26695 -4.64251,-7.47959 -1.63347,-4.21265 -1.63347,-9.02711 0,-4.72848 1.63347,-8.85515 1.71945,-4.21265 4.64251,-7.30766 2.92306,-3.18098 6.87779,-4.9864 4.04071,-1.80542 8.68322,-1.80542 4.72848,0 8.76918,1.8914 4.0407,1.80542 6.96377,4.9864 2.92306,3.095 4.55653,7.30765 1.63348,4.12667 1.63348,8.76918 0,0.42987 0,1.11765 0,0.6018 -0.086,0.77375 H 202.9946 q 0.25792,3.86875 1.80542,7.22168 1.54751,3.26695 3.86876,5.67418 2.40723,2.40722 5.50223,3.78278 3.09501,1.37556 6.61988,1.37556 2.32125,0 4.55654,-0.60181 2.23528,-0.68778 4.12667,-1.80542 1.97737,-1.11764 3.4389,-2.66514 1.5475,-1.63348 2.40722,-3.52487 l 3.78279,1.03167 q -0.9457,2.40723 -2.83709,4.47056 -1.80542,1.97737 -4.29862,3.4389 -2.40723,1.46153 -5.33029,2.23528 -2.92306,0.85973 -6.01807,0.85973 z m 17.53837,-24.932 q -0.25791,-3.95473 -1.80542,-7.22168 -1.46153,-3.26695 -3.86876,-5.58821 -2.32125,-2.40722 -5.41626,-3.69681 -3.095,-1.37556 -6.61987,-1.37556 -3.52487,0 -6.61988,1.37556 -3.095,1.28959 -5.50223,3.69681 -2.32125,2.32126 -3.78278,5.67418 -1.37556,3.26695 -1.63348,7.13571 z" />
      <path
         id="path24"
         style="font-style:normal;font-variant:normal;font-weight:normal;font-stretch:normal;font-size:85.9724px;line-height:1.25;font-family:'Raleway Light';-inkscape-font-specification:'Raleway Light, Normal';font-variant-ligatures:normal;font-variant-caps:normal;font-variant-numeric:normal;font-variant-east-asian:normal;fill:#666666;stroke-width:0.447773"
         d="m 248.7306,157.84916 q 0,-4.72848 1.63347,-8.94113 1.63348,-4.21264 4.55654,-7.30765 2.92306,-3.09501 6.96376,-4.90043 4.0407,-1.80542 8.85516,-1.80542 6.10404,0 10.74655,2.75112 4.64251,2.75112 6.96376,7.65154 l -4.21264,1.37556 q -1.97737,-3.69681 -5.67418,-5.76015 -3.61084,-2.14931 -7.99544,-2.14931 -3.69681,0 -6.87779,1.46153 -3.18098,1.46153 -5.5882,4.04071 -2.32126,2.57917 -3.69682,6.10404 -1.37555,3.43889 -1.37555,7.47959 0,4.04071 1.37555,7.65155 1.46153,3.52487 3.78279,6.19001 2.40723,2.57917 5.5882,4.12667 3.26696,1.54751 6.8778,1.54751 2.32125,0 4.55653,-0.68778 2.32126,-0.68778 4.21265,-1.80542 1.97737,-1.11764 3.35292,-2.57917 1.46154,-1.54751 1.97737,-3.18098 l 4.21265,1.20361 q -0.85973,2.32126 -2.66515,4.38459 -1.71945,1.97737 -4.12667,3.4389 -2.40723,1.46153 -5.33029,2.23528 -2.92306,0.85973 -6.01807,0.85973 -4.72848,0 -8.76918,-1.80542 -4.04071,-1.8914 -7.04974,-5.07238 -2.92306,-3.26695 -4.64251,-7.47959 -1.63347,-4.21265 -1.63347,-9.02711 z" />
      <path
         id="path26"
         style="font-style:normal;font-variant:normal;font-weight:normal;font-stretch:normal;font-size:85.9724px;line-height:1.25;font-family:'Raleway Light';-inkscape-font-specification:'Raleway Light, Normal';font-variant-ligatures:normal;font-variant-caps:normal;font-variant-numeric:normal;font-variant-east-asian:normal;fill:#666666;stroke-width:0.447773"
         d="m 318.61945,178.22462 q -0.34389,0.17195 -1.20361,0.68778 -0.77376,0.42986 -2.06334,0.85973 -1.20362,0.42986 -2.75112,0.77375 -1.5475,0.34389 -3.35292,0.34389 -1.80542,0 -3.4389,-0.51584 -1.5475,-0.51583 -2.75111,-1.5475 -1.20362,-1.03167 -1.8914,-2.4932 -0.68778,-1.46153 -0.68778,-3.4389 v -33.70118 h -6.27598 v -3.52486 h 6.27598 V 120.3652 h 4.29862 v 15.30309 h 10.40266 v 3.52486 h -10.40266 v 32.66951 q 0,2.4932 1.71945,3.78279 1.71945,1.20361 3.86876,1.20361 2.66514,0 4.55654,-0.85972 1.97736,-0.9457 2.40722,-1.20361 z" />
      <path
         id="path28"
         style="font-style:normal;font-variant:normal;font-weight:normal;font-stretch:normal;font-size:85.9724px;line-height:1.25;font-family:'Raleway Light';-inkscape-font-specification:'Raleway Light, Normal';font-variant-ligatures:normal;font-variant-caps:normal;font-variant-numeric:normal;font-variant-east-asian:normal;fill:#666666;stroke-width:0.447773"
         d="m 394.62978,164.55501 q 0,3.35292 -1.28959,6.27599 -1.28959,2.83708 -3.52487,4.98639 -2.23528,2.14931 -5.24431,3.35293 -3.00904,1.20361 -6.36196,1.20361 h -28.54284 v -61.0404 h 28.45687 q 3.18098,0 5.76015,1.37556 2.57917,1.37556 4.38459,3.61084 1.80542,2.14931 2.75112,4.9864 1.03166,2.75111 1.03166,5.5882 0,4.64251 -2.32125,8.51127 -2.32125,3.86876 -6.44793,5.67418 5.24432,1.5475 8.25335,5.84612 3.09501,4.21265 3.09501,9.62891 z m -4.3846,-0.60181 q 0,-2.40722 -0.85972,-4.64251 -0.85972,-2.32125 -2.40723,-4.0407 -1.5475,-1.80542 -3.69681,-2.83709 -2.06334,-1.03167 -4.47056,-1.03167 h -24.76005 v 25.01797 h 24.15824 q 2.57917,0 4.72848,-1.03167 2.23528,-1.03167 3.78279,-2.75111 1.63347,-1.80542 2.57917,-4.04071 0.94569,-2.23528 0.94569,-4.64251 z m -36.19437,-40.66494 v 24.41616 h 22.35282 q 2.4932,0 4.55654,-1.03167 2.06333,-1.03167 3.52486,-2.66514 1.54751,-1.71945 2.40723,-3.95473 0.85972,-2.23528 0.85972,-4.55654 0,-2.4932 -0.85972,-4.64251 -0.77375,-2.23528 -2.23528,-3.86876 -1.37556,-1.71944 -3.35292,-2.66514 -1.97737,-1.03167 -4.3846,-1.03167 z" />
      <path
         id="path30"
         style="font-style:normal;font-variant:normal;font-weight:normal;font-stretch:normal;font-size:85.9724px;line-height:1.25;font-family:'Raleway Light';-inkscape-font-specification:'Raleway Light, Normal';font-variant-ligatures:normal;font-variant-caps:normal;font-variant-numeric:normal;font-variant-east-asian:normal;fill:#666666;stroke-width:0.447773"
         d="m 424.04177,181.23366 q -4.72849,0 -8.76919,-1.80542 -3.95473,-1.8914 -6.87779,-5.07238 -2.92306,-3.18097 -4.55654,-7.39362 -1.63347,-4.21265 -1.63347,-8.85516 0,-4.72848 1.63347,-8.94113 1.71945,-4.21265 4.64251,-7.39362 2.92306,-3.18098 6.87779,-4.9864 4.04071,-1.8914 8.68322,-1.8914 4.64251,0 8.59724,1.8914 3.95473,1.80542 6.87779,4.9864 3.00903,3.18097 4.64251,7.39362 1.71945,4.21265 1.71945,8.94113 0,4.64251 -1.71945,8.85516 -1.63348,4.21265 -4.55654,7.39362 -2.92306,3.18098 -6.96376,5.07238 -3.95473,1.80542 -8.59724,1.80542 z M 406.5034,158.27903 q 0,3.95473 1.37556,7.47959 1.37555,3.4389 3.69681,6.01807 2.40723,2.57917 5.5882,4.12668 3.18098,1.46153 6.79182,1.46153 3.61084,0 6.79182,-1.46153 3.18098,-1.54751 5.58821,-4.21265 2.40723,-2.66514 3.78278,-6.10404 1.37556,-3.52487 1.37556,-7.56557 0,-3.95473 -1.37556,-7.39363 -1.37555,-3.52487 -3.78278,-6.10404 -2.40723,-2.66514 -5.58821,-4.21265 -3.095,-1.5475 -6.70584,-1.5475 -3.61084,0 -6.79182,1.5475 -3.18098,1.54751 -5.58821,4.21265 -2.32125,2.66515 -3.78278,6.27599 -1.37556,3.52487 -1.37556,7.4796 z" />
      <path
         id="path32"
         style="font-style:normal;font-variant:normal;font-weight:normal;font-stretch:normal;font-size:85.9724px;line-height:1.25;font-family:'Raleway Light';-inkscape-font-specification:'Raleway Light, Normal';font-variant-ligatures:normal;font-variant-caps:normal;font-variant-numeric:normal;font-variant-east-asian:normal;fill:#666666;stroke-width:0.447773"
         d="m 474.91994,181.23366 q -4.72848,0 -8.76918,-1.80542 -3.95473,-1.8914 -6.8778,-5.07238 -2.92306,-3.18097 -4.55653,-7.39362 -1.63348,-4.21265 -1.63348,-8.85516 0,-4.72848 1.63348,-8.94113 1.71944,-4.21265 4.64251,-7.39362 2.92306,-3.18098 6.87779,-4.9864 4.0407,-1.8914 8.68321,-1.8914 4.64251,0 8.59724,1.8914 3.95473,1.80542 6.87779,4.9864 3.00904,3.18097 4.64251,7.39362 1.71945,4.21265 1.71945,8.94113 0,4.64251 -1.71945,8.85516 -1.63347,4.21265 -4.55654,7.39362 -2.92306,3.18098 -6.96376,5.07238 -3.95473,1.80542 -8.59724,1.80542 z m -17.53837,-22.95463 q 0,3.95473 1.37556,7.47959 1.37556,3.4389 3.69681,6.01807 2.40723,2.57917 5.58821,4.12668 3.18098,1.46153 6.79182,1.46153 3.61084,0 6.79182,-1.46153 3.18098,-1.54751 5.5882,-4.21265 2.40723,-2.66514 3.78279,-6.10404 1.37556,-3.52487 1.37556,-7.56557 0,-3.95473 -1.37556,-7.39363 -1.37556,-3.52487 -3.78279,-6.10404 -2.40722,-2.66514 -5.5882,-4.21265 -3.09501,-1.5475 -6.70585,-1.5475 -3.61084,0 -6.79182,1.5475 -3.18098,1.54751 -5.5882,4.21265 -2.32126,2.66515 -3.78279,6.27599 -1.37556,3.52487 -1.37556,7.4796 z" />
      <path
         id="path34"
         style="font-style:normal;font-variant:normal;font-weight:normal;font-stretch:normal;font-size:85.9724px;line-height:1.25;font-family:'Raleway Light';-inkscape-font-specification:'Raleway Light, Normal';font-variant-ligatures:normal;font-variant-caps:normal;font-variant-numeric:normal;font-variant-east-asian:normal;fill:#666666;stroke-width:0.447773"
         d="m 572.73907,180.37393 h -4.29862 v -24.93199 q 0,-8.51127 -2.66514,-12.55197 -2.57917,-4.04071 -7.99543,-4.04071 -2.75112,0 -5.24432,1.03167 -2.4932,1.03167 -4.55654,2.92306 -2.06333,1.80542 -3.61084,4.3846 -1.46153,2.4932 -2.32125,5.5882 v 27.59714 h -4.29862 v -24.93199 q 0,-8.59724 -2.57917,-12.55197 -2.57918,-4.04071 -7.99544,-4.04071 -2.75111,0 -5.24431,1.03167 -2.40723,0.9457 -4.47057,2.83709 -2.06334,1.80542 -3.69681,4.38459 -1.5475,2.4932 -2.40723,5.58821 v 27.68311 h -4.29862 v -44.70564 h 4.0407 v 10.66057 q 2.75112,-5.41626 7.22169,-8.42529 4.47056,-3.00904 9.88682,-3.00904 5.67418,0 9.19905,3.35293 3.52487,3.35292 4.21265,8.76918 6.36195,-12.12211 17.53836,-12.12211 7.30766,0 10.40266,5.24432 3.18098,5.15834 3.18098,14.52934 z" />
      <path
         id="path36"
         style="font-style:normal;font-variant:normal;font-weight:normal;font-stretch:normal;font-size:85.9724px;line-height:1.25;font-family:'Raleway Light';-inkscape-font-specification:'Raleway Light, Normal';font-variant-ligatures:normal;font-variant-caps:normal;font-variant-numeric:normal;font-variant-east-asian:normal;fill:#666666;stroke-width:0.447773"
         d="m 604.6402,181.23366 q -4.72848,0 -8.76919,-1.80542 -4.0407,-1.8914 -7.04973,-5.07238 -2.92306,-3.26695 -4.64251,-7.47959 -1.63348,-4.21265 -1.63348,-9.02711 0,-4.72848 1.63348,-8.85515 1.71945,-4.21265 4.64251,-7.30766 2.92306,-3.18098 6.87779,-4.9864 4.0407,-1.80542 8.68321,-1.80542 4.72848,0 8.76919,1.8914 4.0407,1.80542 6.96376,4.9864 2.92306,3.095 4.55654,7.30765 1.63347,4.12667 1.63347,8.76918 0,0.42987 0,1.11765 0,0.6018 -0.086,0.77375 h -39.20341 q 0.25791,3.86875 1.80542,7.22168 1.5475,3.26695 3.86876,5.67418 2.40722,2.40722 5.50223,3.78278 3.09501,1.37556 6.61987,1.37556 2.32126,0 4.55654,-0.60181 2.23528,-0.68778 4.12668,-1.80542 1.97736,-1.11764 3.43889,-2.66514 1.5475,-1.63348 2.40723,-3.52487 l 3.78278,1.03167 q -0.94569,2.40723 -2.83709,4.47056 -1.80542,1.97737 -4.29861,3.4389 -2.40723,1.46153 -5.33029,2.23528 -2.92306,0.85973 -6.01807,0.85973 z m 17.53837,-24.932 q -0.25792,-3.95473 -1.80542,-7.22168 -1.46153,-3.26695 -3.86876,-5.58821 -2.32126,-2.40722 -5.41626,-3.69681 -3.09501,-1.37556 -6.61988,-1.37556 -3.52486,0 -6.61987,1.37556 -3.09501,1.28959 -5.50223,3.69681 -2.32126,2.32126 -3.78279,5.67418 -1.37556,3.26695 -1.63348,7.13571 z" />
      <path
         id="path38"
         style="font-style:normal;font-variant:normal;font-weight:normal;font-stretch:normal;font-size:85.9724px;line-height:1.25;font-family:'Raleway Light';-inkscape-font-specification:'Raleway Light, Normal';font-variant-ligatures:normal;font-variant-caps:normal;font-variant-numeric:normal;font-variant-east-asian:normal;fill:#666666;stroke-width:0.447773"
         d="m 656.99605,139.53704 q -6.01807,0.17195 -10.5746,3.61084 -4.47057,3.35293 -6.27599,9.28502 v 27.94103 h -4.29862 v -44.70564 h 4.12668 v 11.00446 q 2.32125,-4.72848 6.10404,-7.65154 3.86876,-3.00903 8.25335,-3.4389 0.85972,-0.086 1.5475,-0.086 0.68778,0 1.11764,0 z" />
      <path
         id="path40"
         style="font-style:normal;font-variant:normal;font-weight:normal;font-stretch:normal;font-size:85.9724px;line-height:1.25;font-family:'Raleway Light';-inkscape-font-specification:'Raleway Light, Normal';font-variant-ligatures:normal;font-variant-caps:normal;font-variant-numeric:normal;font-variant-east-asian:normal;fill:#666666;stroke-width:0.447773"
         d="m 675.56475,181.23366 q -3.09501,0 -5.76015,-1.03167 -2.66515,-1.11764 -4.72848,-2.92306 -1.97737,-1.8914 -3.09501,-4.3846 -1.11764,-2.57917 -1.11764,-5.50223 0,-2.92306 1.37556,-5.33029 1.37556,-2.40723 3.78278,-4.12667 2.4932,-1.80542 5.9321,-2.75112 3.43889,-1.03167 7.56557,-1.03167 3.61084,0 7.22168,0.68778 3.69681,0.60181 6.61987,1.71945 v -4.38459 q 0,-6.36196 -3.61084,-10.05877 -3.61084,-3.78279 -9.80085,-3.78279 -3.26695,0 -6.96376,1.37556 -3.61084,1.37556 -7.39363,3.95473 l -1.63347,-2.92306 q 8.59723,-5.84613 16.33475,-5.84613 8.08141,0 12.72392,4.72849 4.6425,4.64251 4.6425,12.89586 v 21.83698 q 0,2.14931 1.8914,2.14931 v 3.86876 q -0.42986,0.086 -0.9457,0.086 -0.42986,0.086 -0.77375,0.086 -1.71945,0 -2.75112,-1.11764 -1.03167,-1.20362 -1.20361,-2.83709 v -3.69682 q -3.09501,4.04071 -7.90946,6.19002 -4.81446,2.14931 -10.40266,2.14931 z m 0.85972,-3.4389 q 4.9864,0 9.11308,-1.89139 4.21264,-1.8914 6.44793,-4.9864 1.37555,-1.80542 1.37555,-3.4389 v -7.90946 q -3.095,-1.20361 -6.44792,-1.80542 -3.35293,-0.60181 -6.96377,-0.60181 -3.35292,0 -6.10404,0.77376 -2.75112,0.68778 -4.72848,1.97736 -1.97737,1.28959 -3.09501,3.18098 -1.03167,1.80542 -1.03167,4.0407 0,2.23529 0.85973,4.21265 0.85972,1.97737 2.40722,3.4389 1.54751,1.37555 3.61085,2.23528 2.14931,0.77375 4.55653,0.77375 z" />
      <path
         id="path42"
         style="font-style:normal;font-variant:normal;font-weight:normal;font-stretch:normal;font-size:85.9724px;line-height:1.25;font-family:'Raleway Light';-inkscape-font-specification:'Raleway Light, Normal';font-variant-ligatures:normal;font-variant-caps:normal;font-variant-numeric:normal;font-variant-east-asian:normal;fill:#666666;stroke-width:0.447773"
         d="m 747.27513,180.37393 h -4.29862 v -24.93199 q 0,-8.68322 -2.4932,-12.63795 -2.40723,-3.95473 -7.73752,-3.95473 -2.83709,0 -5.67418,1.03167 -2.75111,1.03167 -5.15834,2.92306 -2.40723,1.8914 -4.21265,4.47057 -1.80542,2.4932 -2.66514,5.41626 v 27.68311 h -4.29862 v -44.70564 h 4.0407 v 10.66057 q 1.37556,-2.57917 3.35292,-4.64251 2.06334,-2.14931 4.55654,-3.61084 2.57917,-1.5475 5.41626,-2.32125 2.83709,-0.85973 5.84612,-0.85973 7.30766,0 10.31669,5.15835 3.00904,5.07237 3.00904,14.61531 z" />
      <path
         id="path44"
         style="font-style:normal;font-variant:normal;font-weight:normal;font-stretch:normal;font-size:85.9724px;line-height:1.25;font-family:'Raleway Light';-inkscape-font-specification:'Raleway Light, Normal';font-variant-ligatures:normal;font-variant-caps:normal;font-variant-numeric:normal;font-variant-east-asian:normal;fill:#666666;stroke-width:0.447773"
         d="m 778.32591,181.06171 q -4.64251,0 -8.51127,-1.89139 -3.86875,-1.97737 -6.70584,-5.15835 -2.75112,-3.26695 -4.3846,-7.39362 -1.5475,-4.12668 -1.5475,-8.51127 0,-4.55654 1.46153,-8.76918 1.54751,-4.21265 4.29862,-7.39363 2.75112,-3.26695 6.5339,-5.15834 3.86876,-1.8914 8.51127,-1.8914 5.84612,0 10.14474,3.09501 4.3846,3.00903 7.39363,7.39363 v -9.71488 h 3.95473 v 45.56537 q 0,4.55653 -1.71945,7.99543 -1.71945,3.43889 -4.64251,5.67418 -2.83709,2.32125 -6.70584,3.43889 -3.78279,1.20362 -7.99544,1.20362 -3.86875,0 -6.96376,-0.77376 -3.09501,-0.68777 -5.50223,-2.06333 -2.32126,-1.28959 -4.21265,-3.26695 -1.80542,-1.8914 -3.18098,-4.21265 l 2.92306,-1.97737 q 2.66515,4.55654 7.22168,6.61988 4.55654,2.14931 9.71488,2.14931 3.4389,0 6.44793,-0.9457 3.09501,-0.94569 5.33029,-2.83709 2.32126,-1.80542 3.61084,-4.55653 1.37556,-2.75112 1.37556,-6.44793 v -9.80086 q -2.75112,4.38459 -7.30765,7.04974 -4.55654,2.57917 -9.54294,2.57917 z m 1.03167,-3.69681 q 2.83709,0 5.50223,-1.03167 2.75112,-1.11764 4.90043,-2.83709 2.23528,-1.71945 3.61084,-3.86876 1.46153,-2.14931 1.80542,-4.29862 v -14.70128 q -1.03167,-2.57917 -2.75112,-4.72848 -1.71944,-2.23528 -3.95473,-3.78278 -2.14931,-1.54751 -4.72848,-2.40723 -2.4932,-0.9457 -5.07237,-0.9457 -4.0407,0 -7.22168,1.71945 -3.18098,1.71945 -5.41626,4.47056 -2.14931,2.75112 -3.35293,6.27599 -1.11764,3.4389 -1.11764,6.96376 0,3.86876 1.37556,7.30766 1.37556,3.43889 3.78279,6.10404 2.40722,2.66514 5.67418,4.21264 3.26695,1.54751 6.96376,1.54751 z" />
    </g>
    <path
       transform="matrix(0.37942483,-0.32917368,-0.32917368,-0.37942483,504.07787,564.43986)"
       inkscape:original-d="m 1042.4583,349.25 c 0,-47.625 191.0214,-105.67677 190.926,-201.10513 -0.095,-95.228203 -190.926,-153.4365367 -190.926,-201.061537 0,-47.624993 271.9753,121.708334 271.8786,200.990077 -0.097,79.46826 -271.8786,248.083 -271.8786,201.17659 z"
       sodipodi:nodetypes="cscsc"
       id="path81"
       d="m 1042.4583,349.25 c 0,-47.625 191.0214,-105.67677 190.926,-201.10513 -0.095,-95.228203 -190.926,-153.4365367 -190.926,-201.061537 0,-47.624993 271.9753,121.708334 271.8786,200.990077 -0.097,79.46826 -271.8786,248.083 -271.8786,201.17659 z"
       style="fill:#666666;fill-opacity:1;stroke:#000000;stroke-width:0.455737;stroke-linecap:butt;stroke-linejoin:miter;stroke-miterlimit:4;stroke-dasharray:none;stroke-opacity:1;filter:url(#filter1693)"
       inkscape:export-xdpi="96"
       inkscape:export-ydpi="96" />
    <rect
       style="fill:#ffffff;stroke-width:1.465"
       id="rect42"
       width="295.49506"
       height="295.49506"
       x="138.31682"
       y="-382.60809"
       inkscape:export-xdpi="96"
       inkscape:export-ydpi="96" />
    <path
       inkscape:export-ydpi="96"
       inkscape:export-xdpi="96"
       style="fill:#666666;fill-opacity:1;stroke:#000000;stroke-width:0.455737;stroke-linecap:butt;stroke-linejoin:miter;stroke-miterlimit:4;stroke-dasharray:none;stroke-opacity:1;filter:url(#filter1693)"
       d="m 1042.4583,349.25 c 0,-47.625 191.0214,-105.67677 190.926,-201.10513 -0.095,-95.228203 -190.926,-153.4365367 -190.926,-201.061537 0,-47.624993 271.9753,121.708334 271.8786,200.990077 -0.097,79.46826 -271.8786,248.083 -271.8786,201.17659 z"
       id="path35"
       sodipodi:nodetypes="cscsc"
       inkscape:original-d="m 1042.4583,349.25 c 0,-47.625 191.0214,-105.67677 190.926,-201.10513 -0.095,-95.228203 -190.926,-153.4365367 -190.926,-201.061537 0,-47.624993 271.9753,121.708334 271.8786,200.990077 -0.097,79.46826 -271.8786,248.083 -271.8786,201.17659 z"
       transform="matrix(0.37942483,-0.32917368,-0.32917368,-0.37942483,-95.654633,192.17537)" />
    <rect
       style="opacity:0.999;fill:#000000;stroke:none;stroke-width:3.05162;stroke-miterlimit:4;stroke-dasharray:none"
       id="rect1205"
       width="500.75955"
       height="382.97968"
       x="488.0755"
       y="-407.93124" />
    <g
       transform="matrix(7.1504065,0,0,7.1504065,-4785.025,1125.3835)"
       id="g101">
      <path
         inkscape:export-ydpi="96"
         inkscape:export-xdpi="96"
         style="fill:#ffffff;fill-opacity:1;stroke:#000000;stroke-width:0.455737;stroke-linecap:butt;stroke-linejoin:miter;stroke-miterlimit:4;stroke-dasharray:none;stroke-opacity:1;filter:url(#filter1693-5)"
         d="m 1042.4583,349.25 c 0,-47.625 191.0214,-105.67677 190.926,-201.10513 -0.095,-95.228203 -190.926,-153.4365367 -190.926,-201.061537 0,-47.624993 271.9753,121.708334 271.8786,200.990077 -0.097,79.46826 -271.8786,248.083 -271.8786,201.17659 z"
         id="path1229"
         sodipodi:nodetypes="cscsc"
         transform="matrix(0.07313083,-0.06344535,-0.06344535,-0.07313083,699.45471,-106.24543)" />
      <circle
         inkscape:export-ydpi="96"
         inkscape:export-xdpi="96"
         inkscape:export-filename="C:\Users\Andrew\Documents\Projects\boomerang\logo\discordserverlogo.png"
         style="fill:none;stroke:#ffffff;stroke-width:1;stroke-miterlimit:4;stroke-dasharray:none"
         id="circle1231"
         cx="771.50519"
         cy="-187.32326"
         r="25.04904" />
      <text
         id="text1235"
         y="-188.44769"
         x="761.94635"
         style="font-style:normal;font-variant:normal;font-weight:normal;font-stretch:normal;font-size:4.5861px;line-height:1.25;font-family:'Raleway Light';-inkscape-font-specification:'Raleway Light, Normal';font-variant-ligatures:normal;font-variant-caps:normal;font-variant-numeric:normal;font-variant-east-asian:normal;fill:#ffffff;stroke-width:0.264583"
         xml:space="preserve"><tspan
           style="font-style:normal;font-variant:normal;font-weight:normal;font-stretch:normal;font-size:4.5861px;font-family:'Raleway Light';-inkscape-font-specification:'Raleway Light, Normal';font-variant-ligatures:normal;font-variant-caps:normal;font-variant-numeric:normal;font-variant-east-asian:normal;fill:#ffffff;stroke-width:0.264583"
           y="-188.44769"
           x="761.94635"
           id="tspan1233"
           sodipodi:role="line">Project</tspan></text>
      <text
         id="text1239"
         y="-183.57468"
         x="752.12305"
         style="font-style:normal;font-variant:normal;font-weight:normal;font-stretch:normal;font-size:4.5861px;line-height:1.25;font-family:'Raleway Light';-inkscape-font-specification:'Raleway Light, Normal';font-variant-ligatures:normal;font-variant-caps:normal;font-variant-numeric:normal;font-variant-east-asian:normal;fill:#ffffff;stroke-width:0.264583"
         xml:space="preserve"><tspan
           style="font-style:normal;font-variant:normal;font-weight:normal;font-stretch:normal;font-size:4.5861px;font-family:'Raleway Light';-inkscape-font-specification:'Raleway Light, Normal';font-variant-ligatures:normal;font-variant-caps:normal;font-variant-numeric:normal;font-variant-east-asian:normal;fill:#ffffff;stroke-width:0.264583"
           y="-183.57468"
           x="752.12305"
           id="tspan1237"
           sodipodi:role="line">Boomerang</tspan></text>
    </g>
  </g>
</svg>
